<?xml version="1.0" encoding="UTF-8" standalone="no"?>
<!-- Created with Inkscape (http://www.inkscape.org/) -->

<svg
   xmlns:dc="http://purl.org/dc/elements/1.1/"
   xmlns:cc="http://creativecommons.org/ns#"
   xmlns:rdf="http://www.w3.org/1999/02/22-rdf-syntax-ns#"
   xmlns:svg="http://www.w3.org/2000/svg"
   xmlns="http://www.w3.org/2000/svg"
   xmlns:sodipodi="http://sodipodi.sourceforge.net/DTD/sodipodi-0.dtd"
   xmlns:inkscape="http://www.inkscape.org/namespaces/inkscape"
   width="796.78473"
   height="624.99268"
   id="svg2"
   version="1.1"
   inkscape:version="0.48.1 r9760"
   sodipodi:docname="gproctopus_1.svg">
  <defs
     id="defs4" />
  <sodipodi:namedview
     id="base"
     pagecolor="#ffffff"
     bordercolor="#666666"
     borderopacity="1.0"
     inkscape:pageopacity="0.0"
     inkscape:pageshadow="2"
     inkscape:zoom="0.49497475"
     inkscape:cx="775.99173"
     inkscape:cy="34.730347"
     inkscape:document-units="px"
     inkscape:current-layer="layer1"
     showgrid="false"
     showguides="true"
     inkscape:guide-bbox="true"
     inkscape:snap-global="false"
     inkscape:window-width="1068"
     inkscape:window-height="948"
     inkscape:window-x="701"
     inkscape:window-y="76"
     inkscape:window-maximized="0"
     fit-margin-top="50"
     fit-margin-left="50"
     fit-margin-right="50"
     fit-margin-bottom="50">
    <inkscape:grid
       type="xygrid"
       id="grid3920"
       empspacing="5"
       visible="true"
       enabled="true"
       snapvisiblegridlinesonly="true" />
  </sodipodi:namedview>
  <metadata
     id="metadata7">
    <rdf:RDF>
      <cc:Work
         rdf:about="">
        <dc:format>image/svg+xml</dc:format>
        <dc:type
           rdf:resource="http://purl.org/dc/dcmitype/StillImage" />
        <dc:title></dc:title>
      </cc:Work>
    </rdf:RDF>
  </metadata>
  <g
     inkscape:label="Layer 1"
     inkscape:groupmode="layer"
     id="layer1"
     transform="translate(21.903396,-139.55898)">
    <path
       transform="translate(-1.4285714,-2.8571429)"
       style="fill:#defe00;fill-opacity:1;fill-rule:evenodd;stroke:none"
       d="m 368.875,192.4375 c -49.90672,0.66629 -98.84013,26.09213 -128.01695,66.59632 -26.61973,36.64743 -36.94518,84.8399 -27.00439,129.09702 5.86662,26.33174 19.0587,50.37919 34.38533,72.33911 15.20708,22.1292 32.33513,43.30548 53.41726,60.1238 17.83981,14.14038 39.14766,24.64991 61.96315,27.17444 19.74899,2.11665 39.8694,-2.6437 57.27227,-12.00461 23.48224,-12.56477 42.40095,-32.06637 58.31115,-53.13476 12.16806,-15.98465 23.12666,-32.88858 32.89771,-50.43812 9.36175,-17.01748 16.33893,-35.51317 18.956,-54.82509 6.53538,-44.65257 -6.57379,-91.85355 -35.46127,-126.56404 -26.86362,-32.47082 -66.96376,-53.41228 -108.83296,-57.62147 -5.93968,-0.58475 -11.91928,-0.84367 -17.8873,-0.7426 z"
       id="path2985"
       inkscape:connector-curvature="0" />
    <path
       style="fill:none;stroke:#defe00;stroke-width:30;stroke-linecap:round;stroke-linejoin:miter;stroke-miterlimit:4;stroke-opacity:1;stroke-dasharray:none"
       d="M 709.75895,492.19634 C 626.14977,339.27344 594.40239,561.78396 498.83294,438.91811"
       id="path3775"
       inkscape:connector-curvature="0"
       sodipodi:nodetypes="cc" />
    <path
       style="fill:none;stroke:#defe00;stroke-width:30;stroke-linecap:round;stroke-linejoin:miter;stroke-miterlimit:4;stroke-opacity:1;stroke-dasharray:none"
       d="M 43.108419,483.20899 C 126.7176,330.28609 158.46498,552.79661 254.03443,429.93076"
       id="path3775-0"
       inkscape:connector-curvature="0"
       sodipodi:nodetypes="cc" />
    <path
       style="fill:none;stroke:#defe00;stroke-width:30;stroke-linecap:round;stroke-linejoin:miter;stroke-miterlimit:4;stroke-opacity:1;stroke-dasharray:none"
       d="M 666.67334,572.7202 C 591.69987,463.91979 568.79458,595.0871 467.8878,491.5896"
       id="path3775-06"
       inkscape:connector-curvature="0"
       sodipodi:nodetypes="cc" />
    <path
       style="fill:none;stroke:#defe00;stroke-width:30;stroke-linecap:round;stroke-linejoin:miter;stroke-miterlimit:4;stroke-opacity:1;stroke-dasharray:none"
       d="M 624.71872,612.01318 C 557.91822,510.27115 497.2172,655.52103 429.91434,515.16482"
       id="path3775-5"
       inkscape:connector-curvature="0"
       sodipodi:nodetypes="cc" />
    <path
       style="fill:none;stroke:#defe00;stroke-width:30;stroke-linecap:round;stroke-linejoin:miter;stroke-miterlimit:4;stroke-opacity:1;stroke-dasharray:none"
       d="M 473.48123,699.00377 C 516.44932,579.38764 337.91017,624.17688 412.35103,487.47247"
       id="path3775-1"
       inkscape:connector-curvature="0"
       sodipodi:nodetypes="cc" />
    <path
       style="fill:none;stroke:#defe00;stroke-width:30;stroke-linecap:round;stroke-linejoin:miter;stroke-miterlimit:4;stroke-opacity:1;stroke-dasharray:none"
       d="M 88.144295,583.27688 C 179.5959,434.91074 166.86727,595.91445 268.69928,478.18687"
       id="path3775-0-9"
       inkscape:connector-curvature="0"
       sodipodi:nodetypes="cc" />
    <path
       style="fill:none;stroke:#defe00;stroke-width:30;stroke-linecap:round;stroke-linejoin:miter;stroke-miterlimit:4;stroke-opacity:1;stroke-dasharray:none"
       d="m 176.36271,642.72805 c 4.5496,-136.48743 133.87053,-15.10803 134.78911,-170.76372"
       id="path3775-0-4"
       inkscape:connector-curvature="0"
       sodipodi:nodetypes="cc" />
    <path
       style="fill:none;stroke:#defe00;stroke-width:30;stroke-linecap:round;stroke-linejoin:miter;stroke-miterlimit:4;stroke-opacity:1;stroke-dasharray:none"
       d="M 274.94705,687.15929 C 281.49079,554.015 377.64429,637.39816 337.80907,490.2645"
       id="path3775-0-4-4"
       inkscape:connector-curvature="0"
       sodipodi:nodetypes="cc" />
    <path
       sodipodi:type="arc"
       style="fill:#000000;fill-opacity:1;stroke:none"
       id="path3898"
       sodipodi:cx="180"
       sodipodi:cy="165.21933"
       sodipodi:rx="32.857143"
       sodipodi:ry="32.857143"
       d="m 212.85714,165.21933 a 32.857143,32.857143 0 1 1 -65.71428,0 32.857143,32.857143 0 1 1 65.71428,0 z"
       transform="translate(134.28571,161.42857)" />
    <path
       transform="translate(247.14285,161.42857)"
       sodipodi:type="arc"
       style="fill:#000000;fill-opacity:1;stroke:none"
       id="path3898-2"
       sodipodi:cx="180"
       sodipodi:cy="165.21933"
       sodipodi:rx="32.857143"
       sodipodi:ry="32.857143"
       d="m 212.85714,165.21933 a 32.857143,32.857143 0 1 1 -65.71428,0 32.857143,32.857143 0 1 1 65.71428,0 z" />
    <path
       sodipodi:type="arc"
       style="fill:#fffeaa;fill-opacity:1;stroke:none"
       id="path3922"
       sodipodi:cx="413.57144"
       sodipodi:cy="232.36218"
       sodipodi:rx="29.285715"
       sodipodi:ry="25.714285"
       d="m 442.85716,232.36218 a 29.285715,25.714285 0 1 1 -58.57143,0 29.285715,25.714285 0 1 1 58.57143,0 z"
       transform="matrix(1.1951219,0,0,0.66666666,-93.554008,74.596921)" />
    <path
       sodipodi:type="arc"
       style="fill:#fffeaa;fill-opacity:1;stroke:none"
       id="path3922-0"
       sodipodi:cx="413.57144"
       sodipodi:cy="232.36218"
       sodipodi:rx="29.285715"
       sodipodi:ry="25.714285"
       d="m 442.85716,232.36218 a 29.285715,25.714285 0 1 1 -58.57143,0 29.285715,25.714285 0 1 1 58.57143,0 z"
       transform="matrix(0.60975606,0,0,0.33333332,194.96516,174.90813)" />
    <path
       sodipodi:type="arc"
       style="fill:#fffeaa;fill-opacity:1;stroke:none"
       id="path3922-0-8"
       sodipodi:cx="413.57144"
       sodipodi:cy="232.36218"
       sodipodi:rx="29.285715"
       sodipodi:ry="25.714285"
       d="m 442.85716,232.36218 a 29.285715,25.714285 0 1 1 -58.57143,0 29.285715,25.714285 0 1 1 58.57143,0 z"
       transform="matrix(0.41463411,0,0,0.27777776,241.37631,193.53142)" />
    <path
       sodipodi:type="arc"
       style="fill:#ffffff;fill-opacity:1;stroke:none"
       id="path3960"
       sodipodi:cx="301.42856"
       sodipodi:cy="323.79074"
       sodipodi:rx="15.714286"
       sodipodi:ry="15.714286"
       d="m 317.14284,323.79074 a 15.714286,15.714286 0 1 1 -31.42857,0 15.714286,15.714286 0 1 1 31.42857,0 z"
       transform="translate(17.742025,9.5890158)" />
    <path
       sodipodi:type="arc"
       style="fill:#ffffff;fill-opacity:1;stroke:none"
       id="path3960-8"
       sodipodi:cx="301.42856"
       sodipodi:cy="323.79074"
       sodipodi:rx="15.714286"
       sodipodi:ry="15.714286"
       d="m 317.14284,323.79074 a 15.714286,15.714286 0 1 1 -31.42857,0 15.714286,15.714286 0 1 1 31.42857,0 z"
       transform="translate(130.99965,9.0839514)" />
    <path
       style="fill:none;stroke:#000000;stroke-width:8.18286133;stroke-linecap:round;stroke-linejoin:miter;stroke-miterlimit:4;stroke-opacity:1;stroke-dasharray:none"
       d="m 442.64631,431.6479 -141.00689,0"
       id="path3992"
       inkscape:connector-curvature="0" />
    <path
       sodipodi:type="arc"
       style="fill:#fffeaa;fill-opacity:1;stroke:none"
       id="path3922-0-8-9"
       sodipodi:cx="413.57144"
       sodipodi:cy="232.36218"
       sodipodi:rx="29.285715"
       sodipodi:ry="25.714285"
       d="m 442.85716,232.36218 a 29.285715,25.714285 0 1 1 -58.57143,0 29.285715,25.714285 0 1 1 58.57143,0 z"
       transform="matrix(0.2926829,0,0,0.2222222,326.81186,180.72615)" />
  </g>
</svg>
